<svg xmlns="http://www.w3.org/2000/svg" width="1200" height="900" viewBox="0 0 1200 900" role="img"><title>packaging design</title><rect width="1200" height="900" fill="#EFEBE3"/><rect x="0.0" y="13.2" width="557.9" height="6.1" fill="#141414" opacity="0.46"/><rect x="0.0" y="39.7" width="163.6" height="6.0" fill="#141414" opacity="0.89"/><rect x="0.0" y="66.2" width="974.7" height="8.2" fill="#C6462B" opacity="0.90"/><rect x="746.2" y="92.6" width="453.8" height="6.1" fill="#141414" opacity="0.68"/><rect x="0.0" y="119.1" width="461.6" height="3.2" fill="#C6462B" opacity="0.53"/><rect x="848.7" y="145.6" width="351.3" height="7.2" fill="#141414" opacity="0.53"/><rect x="0.0" y="172.1" width="219.5" height="9.0" fill="#141414" opacity="0.71"/><rect x="799.6" y="198.5" width="400.4" height="9.0" fill="#141414" opacity="0.62"/><rect x="225.6" y="225.0" width="974.4" height="5.4" fill="#141414" opacity="0.50"/><rect x="156.2" y="251.5" width="1043.8" height="9.2" fill="#C6462B" opacity="0.55"/><rect x="628.2" y="277.9" width="571.8" height="6.8" fill="#141414" opacity="0.54"/><rect x="779.4" y="304.4" width="420.6" height="9.2" fill="#141414" opacity="0.92"/><rect x="0.0" y="330.9" width="244.6" height="4.5" fill="#141414" opacity="0.76"/><rect x="0.0" y="357.4" width="497.6" height="6.7" fill="#141414" opacity="0.43"/><rect x="0.0" y="383.8" width="953.3" height="5.7" fill="#141414" opacity="0.72"/><rect x="792.4" y="410.3" width="407.6" height="5.7" fill="#141414" opacity="0.90"/><rect x="0.0" y="436.8" width="669.9" height="2.7" fill="#141414" opacity="0.86"/><rect x="677.2" y="463.2" width="522.8" height="2.9" fill="#141414" opacity="0.37"/><rect x="488.2" y="489.7" width="711.8" height="8.7" fill="#141414" opacity="0.93"/><rect x="0.0" y="516.2" width="218.2" height="9.3" fill="#141414" opacity="0.81"/><rect x="0.0" y="542.6" width="580.6" height="7.7" fill="#141414" opacity="0.67"/><rect x="0.0" y="569.1" width="421.9" height="6.9" fill="#141414" opacity="0.89"/><rect x="0.0" y="595.6" width="1031.7" height="6.2" fill="#141414" opacity="0.45"/><rect x="0.0" y="622.1" width="712.7" height="7.5" fill="#141414" opacity="0.36"/><rect x="967.0" y="648.5" width="233.0" height="7.6" fill="#141414" opacity="0.66"/><rect x="0.0" y="675.0" width="990.2" height="3.2" fill="#141414" opacity="0.47"/><rect x="0.0" y="701.5" width="240.2" height="9.8" fill="#141414" opacity="0.62"/><rect x="165.9" y="727.9" width="1034.1" height="6.6" fill="#141414" opacity="0.55"/><rect x="67.8" y="754.4" width="1132.2" height="9.0" fill="#141414" opacity="0.58"/><rect x="0.0" y="780.9" width="940.0" height="8.1" fill="#141414" opacity="0.65"/><rect x="0.0" y="807.4" width="432.9" height="2.7" fill="#141414" opacity="0.56"/><rect x="801.3" y="833.8" width="398.7" height="5.9" fill="#141414" opacity="0.45"/><rect x="61.3" y="860.3" width="1138.7" height="7.7" fill="#141414" opacity="0.49"/><rect x="0.0" y="886.8" width="728.8" height="3.6" fill="#141414" opacity="0.61"/><text x="40" y="864" fill="#141414" opacity="0.55" font-family="ui-sans-serif, system-ui, sans-serif" font-size="28" letter-spacing="3.9">PACKAGING DESIGN</text></svg>