<svg xmlns="http://www.w3.org/2000/svg" width="1600" height="1000" viewBox="0 0 1600 1000" role="img"><title>Shorouk Studio</title><rect width="1600" height="1000" fill="#EFEBE3"/><rect x="0.0" y="15.2" width="934.4" height="5.1" fill="#141414" opacity="0.50"/><rect x="0.0" y="45.5" width="641.5" height="11.0" fill="#141414" opacity="0.78"/><rect x="1183.9" y="75.8" width="416.1" height="8.8" fill="#141414" opacity="0.79"/><rect x="481.9" y="106.1" width="1118.1" height="10.3" fill="#141414" opacity="0.84"/><rect x="93.7" y="136.4" width="1506.3" height="3.4" fill="#141414" opacity="0.58"/><rect x="0.0" y="166.7" width="1380.8" height="3.3" fill="#141414" opacity="0.78"/><rect x="1226.3" y="197.0" width="373.7" height="8.8" fill="#141414" opacity="0.44"/><rect x="102.6" y="227.3" width="1497.4" height="8.6" fill="#141414" opacity="0.32"/><rect x="0.0" y="257.6" width="532.2" height="9.1" fill="#141414" opacity="0.33"/><rect x="1102.0" y="287.9" width="498.0" height="4.7" fill="#141414" opacity="0.84"/><rect x="517.5" y="318.2" width="1082.5" height="10.5" fill="#141414" opacity="0.32"/><rect x="0.0" y="348.5" width="964.5" height="8.2" fill="#141414" opacity="0.78"/><rect x="0.0" y="378.8" width="746.6" height="12.0" fill="#141414" opacity="0.30"/><rect x="562.3" y="409.1" width="1037.7" height="7.8" fill="#141414" opacity="0.87"/><rect x="755.5" y="439.4" width="844.5" height="9.5" fill="#141414" opacity="0.53"/><rect x="1110.9" y="469.7" width="489.1" height="6.7" fill="#141414" opacity="0.46"/><rect x="0.0" y="500.0" width="1474.8" height="4.2" fill="#141414" opacity="0.89"/><rect x="0.0" y="530.3" width="502.5" height="7.6" fill="#141414" opacity="0.68"/><rect x="0.0" y="560.6" width="1433.1" height="4.0" fill="#141414" opacity="0.65"/><rect x="1143.5" y="590.9" width="456.5" height="7.3" fill="#141414" opacity="0.36"/><rect x="0.0" y="621.2" width="1326.2" height="11.9" fill="#141414" opacity="0.44"/><rect x="277.5" y="651.5" width="1322.5" height="7.1" fill="#141414" opacity="0.55"/><rect x="0.0" y="681.8" width="1397.7" height="7.4" fill="#141414" opacity="0.70"/><rect x="843.6" y="712.1" width="756.4" height="5.3" fill="#141414" opacity="0.92"/><rect x="1281.6" y="742.4" width="318.4" height="5.2" fill="#141414" opacity="0.30"/><rect x="0.0" y="772.7" width="710.9" height="9.1" fill="#141414" opacity="0.40"/><rect x="0.0" y="803.0" width="1141.5" height="6.5" fill="#141414" opacity="0.67"/><rect x="223.2" y="833.3" width="1376.8" height="8.2" fill="#141414" opacity="0.52"/><rect x="316.5" y="863.6" width="1283.5" height="11.0" fill="#141414" opacity="0.39"/><rect x="678.5" y="893.9" width="921.5" height="6.4" fill="#141414" opacity="0.43"/><rect x="0.0" y="924.2" width="878.1" height="5.1" fill="#141414" opacity="0.65"/><rect x="1176.5" y="954.5" width="423.5" height="4.8" fill="#141414" opacity="0.73"/><rect x="0.0" y="984.8" width="1052.9" height="9.2" fill="#141414" opacity="0.57"/><text x="45" y="960" fill="#141414" opacity="0.55" font-family="ui-sans-serif, system-ui, sans-serif" font-size="32" letter-spacing="4.5">SHOROUK STUDIO</text></svg>