<svg xmlns="http://www.w3.org/2000/svg" width="1400" height="1400" viewBox="0 0 1400 1400" role="img"><title>co-qamar-foods-2</title><rect width="1400" height="1400" fill="#1A1D23"/><rect x="0.0" y="22.6" width="747.7" height="8.0" fill="#F1F3F6" opacity="0.89"/><rect x="678.3" y="67.7" width="721.7" height="13.7" fill="#F1F3F6" opacity="0.58"/><rect x="0.0" y="112.9" width="892.2" height="10.0" fill="#F1F3F6" opacity="0.44"/><rect x="407.5" y="158.1" width="992.5" height="5.1" fill="#F1F3F6" opacity="0.71"/><rect x="1155.8" y="203.2" width="244.2" height="18.0" fill="#86E7BE" opacity="0.43"/><rect x="143.5" y="248.4" width="1256.5" height="12.9" fill="#F1F3F6" opacity="0.93"/><rect x="726.7" y="293.5" width="673.3" height="6.8" fill="#F1F3F6" opacity="0.84"/><rect x="356.3" y="338.7" width="1043.7" height="7.7" fill="#F1F3F6" opacity="0.82"/><rect x="1101.9" y="383.9" width="298.1" height="16.1" fill="#F1F3F6" opacity="0.40"/><rect x="455.4" y="429.0" width="944.6" height="4.9" fill="#86E7BE" opacity="0.34"/><rect x="431.9" y="474.2" width="968.1" height="5.9" fill="#F1F3F6" opacity="0.59"/><rect x="599.1" y="519.4" width="800.9" height="7.8" fill="#F1F3F6" opacity="0.35"/><rect x="0.0" y="564.5" width="1213.4" height="14.2" fill="#86E7BE" opacity="0.90"/><rect x="0.0" y="609.7" width="1113.3" height="9.3" fill="#86E7BE" opacity="0.59"/><rect x="0.0" y="654.8" width="509.2" height="11.6" fill="#86E7BE" opacity="0.69"/><rect x="228.4" y="700.0" width="1171.6" height="9.6" fill="#F1F3F6" opacity="0.90"/><rect x="741.1" y="745.2" width="658.9" height="13.3" fill="#F1F3F6" opacity="0.86"/><rect x="0.0" y="790.3" width="700.4" height="14.8" fill="#F1F3F6" opacity="0.57"/><rect x="0.0" y="835.5" width="1005.0" height="13.3" fill="#86E7BE" opacity="0.35"/><rect x="0.0" y="880.6" width="681.4" height="16.3" fill="#F1F3F6" opacity="0.89"/><rect x="249.6" y="925.8" width="1150.4" height="7.9" fill="#F1F3F6" opacity="0.36"/><rect x="0.0" y="971.0" width="503.6" height="4.8" fill="#F1F3F6" opacity="0.78"/><rect x="653.6" y="1016.1" width="746.4" height="10.7" fill="#F1F3F6" opacity="0.75"/><rect x="114.8" y="1061.3" width="1285.2" height="14.1" fill="#F1F3F6" opacity="0.85"/><rect x="0.0" y="1106.5" width="291.0" height="16.1" fill="#F1F3F6" opacity="0.84"/><rect x="481.4" y="1151.6" width="918.6" height="10.6" fill="#86E7BE" opacity="0.77"/><rect x="0.0" y="1196.8" width="584.7" height="12.1" fill="#F1F3F6" opacity="0.41"/><rect x="0.0" y="1241.9" width="444.1" height="13.2" fill="#F1F3F6" opacity="0.85"/><rect x="445.2" y="1287.1" width="954.8" height="13.2" fill="#F1F3F6" opacity="0.53"/><rect x="1136.5" y="1332.3" width="263.5" height="8.0" fill="#F1F3F6" opacity="0.73"/><rect x="78.3" y="1377.4" width="1321.7" height="12.5" fill="#86E7BE" opacity="0.93"/></svg>