<svg xmlns="http://www.w3.org/2000/svg" width="1200" height="1500" viewBox="0 0 1200 1500" role="img"><title>sard-typeface-campaign-1</title><rect width="1200" height="1500" fill="#F5F3FF"/><rect x="489.7" y="44.1" width="710.3" height="22.4" fill="#2E1065" opacity="0.55"/><rect x="0.0" y="132.4" width="640.2" height="10.3" fill="#2E1065" opacity="0.95"/><rect x="431.5" y="220.6" width="768.5" height="31.8" fill="#2E1065" opacity="0.40"/><rect x="1038.7" y="308.8" width="161.3" height="23.9" fill="#2E1065" opacity="0.86"/><rect x="471.9" y="397.1" width="728.1" height="18.5" fill="#2E1065" opacity="0.85"/><rect x="881.8" y="485.3" width="318.2" height="15.4" fill="#2E1065" opacity="0.61"/><rect x="0.0" y="573.5" width="366.2" height="30.2" fill="#2E1065" opacity="0.88"/><rect x="203.6" y="661.8" width="996.4" height="15.3" fill="#2E1065" opacity="0.30"/><rect x="0.0" y="750.0" width="551.1" height="18.7" fill="#2E1065" opacity="0.47"/><rect x="0.0" y="838.2" width="756.8" height="10.2" fill="#2E1065" opacity="0.71"/><rect x="504.0" y="926.5" width="696.0" height="33.0" fill="#2E1065" opacity="0.72"/><rect x="80.1" y="1014.7" width="1119.9" height="16.1" fill="#2E1065" opacity="0.42"/><rect x="976.8" y="1102.9" width="223.2" height="29.3" fill="#A78BFA" opacity="0.48"/><rect x="769.0" y="1191.2" width="431.0" height="29.6" fill="#2E1065" opacity="0.35"/><rect x="252.4" y="1279.4" width="947.6" height="12.6" fill="#2E1065" opacity="0.64"/><rect x="330.1" y="1367.6" width="869.9" height="29.7" fill="#A78BFA" opacity="0.68"/><rect x="411.7" y="1455.9" width="788.3" height="34.1" fill="#2E1065" opacity="0.84"/></svg>