<svg xmlns="http://www.w3.org/2000/svg" width="1600" height="900" viewBox="0 0 1600 900" role="img"><title>khatt-poster-series-6</title><rect width="1600" height="900" fill="#DCD6C8"/><rect x="827.7" y="28.1" width="772.3" height="11.7" fill="#161616" opacity="0.83"/><rect x="1358.6" y="84.4" width="241.4" height="5.9" fill="#161616" opacity="0.36"/><rect x="0.0" y="140.6" width="1231.0" height="11.7" fill="#161616" opacity="0.64"/><rect x="283.1" y="196.9" width="1316.9" height="14.1" fill="#161616" opacity="0.60"/><rect x="0.0" y="253.1" width="1331.4" height="7.4" fill="#161616" opacity="0.52"/><rect x="241.9" y="309.4" width="1358.1" height="15.9" fill="#161616" opacity="0.42"/><rect x="839.9" y="365.6" width="760.1" height="16.4" fill="#161616" opacity="0.95"/><rect x="0.0" y="421.9" width="813.9" height="18.1" fill="#161616" opacity="0.66"/><rect x="0.0" y="478.1" width="964.9" height="6.7" fill="#161616" opacity="0.34"/><rect x="0.0" y="534.4" width="606.9" height="7.8" fill="#161616" opacity="0.69"/><rect x="0.0" y="590.6" width="1103.3" height="10.3" fill="#161616" opacity="0.40"/><rect x="645.0" y="646.9" width="955.0" height="10.9" fill="#161616" opacity="0.90"/><rect x="308.5" y="703.1" width="1291.5" height="9.3" fill="#161616" opacity="0.92"/><rect x="0.0" y="759.4" width="662.4" height="6.8" fill="#161616" opacity="0.48"/><rect x="0.0" y="815.6" width="417.5" height="20.3" fill="#161616" opacity="0.34"/><rect x="0.0" y="871.9" width="586.7" height="15.1" fill="#161616" opacity="0.46"/></svg>