<svg xmlns="http://www.w3.org/2000/svg" width="1400" height="1000" viewBox="0 0 1400 1000" role="img"><title>ws-type-design-course-1</title><rect width="1400" height="1000" fill="#EEF2FF"/><rect x="79.3" y="16.7" width="1320.7" height="8.5" fill="#1E1B4B" opacity="0.88"/><rect x="80.6" y="50.0" width="1319.4" height="6.4" fill="#1E1B4B" opacity="0.81"/><rect x="215.1" y="83.3" width="1184.9" height="11.2" fill="#4F46E5" opacity="0.58"/><rect x="1059.3" y="116.7" width="340.7" height="10.4" fill="#4F46E5" opacity="0.68"/><rect x="183.4" y="150.0" width="1216.6" height="12.4" fill="#4F46E5" opacity="0.35"/><rect x="827.2" y="183.3" width="572.8" height="5.6" fill="#1E1B4B" opacity="0.70"/><rect x="1085.2" y="216.7" width="314.8" height="9.1" fill="#1E1B4B" opacity="0.87"/><rect x="1224.4" y="250.0" width="175.6" height="10.6" fill="#1E1B4B" opacity="0.51"/><rect x="0.0" y="283.3" width="346.4" height="12.9" fill="#4F46E5" opacity="0.52"/><rect x="0.0" y="316.7" width="885.1" height="4.2" fill="#1E1B4B" opacity="0.48"/><rect x="0.0" y="350.0" width="318.6" height="10.6" fill="#4F46E5" opacity="0.71"/><rect x="0.0" y="383.3" width="217.0" height="7.8" fill="#1E1B4B" opacity="0.74"/><rect x="0.0" y="416.7" width="794.6" height="12.2" fill="#1E1B4B" opacity="0.91"/><rect x="0.0" y="450.0" width="245.5" height="4.8" fill="#4F46E5" opacity="0.55"/><rect x="0.0" y="483.3" width="614.1" height="3.8" fill="#1E1B4B" opacity="0.81"/><rect x="691.5" y="516.7" width="708.5" height="10.7" fill="#1E1B4B" opacity="0.80"/><rect x="0.0" y="550.0" width="268.9" height="4.1" fill="#1E1B4B" opacity="0.31"/><rect x="0.0" y="583.3" width="256.4" height="8.1" fill="#1E1B4B" opacity="0.94"/><rect x="0.0" y="616.7" width="1063.7" height="6.1" fill="#1E1B4B" opacity="0.41"/><rect x="777.7" y="650.0" width="622.3" height="4.6" fill="#1E1B4B" opacity="0.51"/><rect x="0.0" y="683.3" width="1213.0" height="3.5" fill="#1E1B4B" opacity="0.35"/><rect x="0.0" y="716.7" width="243.2" height="8.6" fill="#1E1B4B" opacity="0.31"/><rect x="475.0" y="750.0" width="925.0" height="9.1" fill="#1E1B4B" opacity="0.46"/><rect x="1229.6" y="783.3" width="170.4" height="10.6" fill="#1E1B4B" opacity="0.43"/><rect x="0.0" y="816.7" width="970.0" height="13.3" fill="#1E1B4B" opacity="0.64"/><rect x="714.2" y="850.0" width="685.8" height="7.6" fill="#4F46E5" opacity="0.46"/><rect x="0.0" y="883.3" width="1171.4" height="8.9" fill="#1E1B4B" opacity="0.74"/><rect x="0.0" y="916.7" width="196.1" height="10.9" fill="#1E1B4B" opacity="0.46"/><rect x="0.0" y="950.0" width="794.9" height="10.3" fill="#1E1B4B" opacity="0.58"/><rect x="877.3" y="983.3" width="522.7" height="12.0" fill="#4F46E5" opacity="0.70"/></svg>